NFP 09-30-14.ufo
<glyph name="exclam" format="1">
  <advance width="212"/>
  <unicode hex="0021"/>
  <outline>
    <contour>
      <point x="58" y="441" type="line"/>
      <point x="65" y="185" type="line"/>
      <point x="147" y="185" type="line"/>
      <point x="154" y="441" type="line"/>
      <point x="157" y="685" type="line"/>
      <point x="55" y="685" type="line"/>
    </contour>
    <contour>
      <point x="55" y="115" type="line"/>
      <point x="55" y="0" type="line"/>
      <point x="157" y="0" type="line"/>
      <point x="157" y="115" type="line"/>
    </contour>
  </outline>
</glyph>
<glyph name="quotedbl" format="1">
  <advance width="365"/>
  <unicode hex="0022"/>
  <outline>
    <contour>
      <point x="261" y="570" type="line"/>
      <point x="267" y="520"/>
      <point x="248" y="490"/>
      <point x="212" y="469" type="curve"/>
      <point x="234" y="438" type="line"/>
      <point x="279" y="466"/>
      <point x="308" y="502"/>
      <point x="310" y="570" type="curve"/>
      <point x="310" y="685" type="line"/>
      <point x="208" y="685" type="line"/>
      <point x="208" y="570" type="line"/>
    </contour>
    <contour>
      <point x="108" y="570" type="line"/>
      <point x="114" y="520"/>
      <point x="95" y="490"/>
      <point x="59" y="469" type="curve"/>
      <point x="81" y="438" type="line"/>
      <point x="126" y="466"/>
      <point x="155" y="502"/>
      <point x="157" y="570" type="curve"/>
      <point x="157" y="685" type="line"/>
      <point x="55" y="685" type="line"/>
      <point x="55" y="570" type="line"/>
    </contour>
  </outline>
</glyph>
<glyph name="quotesingle" format="1">
  <advance width="202"/>
  <unicode hex="0027"/>
  <outline>
    <contour>
      <point x="108" y="570" type="line"/>
      <point x="114" y="520"/>
      <point x="95" y="490"/>
      <point x="59" y="469" type="curve"/>
      <point x="81" y="438" type="line"/>
      <point x="126" y="466"/>
      <point x="155" y="502"/>
      <point x="157" y="570" type="curve"/>
      <point x="157" y="685" type="line"/>
      <point x="55" y="685" type="line"/>
      <point x="55" y="570" type="line"/>
    </contour>
  </outline>
</glyph>
<glyph name="comma" format="1">
  <advance width="202"/>
  <unicode hex="002C"/>
  <outline>
    <contour>
      <point x="-5" y="-112" type="curve"/>
      <point x="61" y="-112" type="line"/>
      <point x="167" y="75" type="line"/>
      <point x="55" y="75" type="line"/>
      <point x="55" y="75"/>
      <point x="-5" y="-112"/>
    </contour>
  </outline>
</glyph>
<glyph name="hyphen" format="1">
  <advance width="434"/>
  <unicode hex="002D"/>
  <outline>
    <contour>
      <point x="40" y="315" type="line"/>
      <point x="394" y="315" type="line"/>
      <point x="394" y="233" type="line"/>
      <point x="40" y="233" type="line"/>
    </contour>
  </outline>
</glyph>
<glyph name="equal" format="1">
  <advance width="565"/>
  <unicode hex="003D"/>
  <outline>
    <contour>
      <point x="459" y="168" type="line"/>
      <point x="459" y="86" type="line"/>
      <point x="105" y="86" type="line"/>
      <point x="105" y="168" type="line"/>
    </contour>
    <contour>
      <point x="105" y="414" type="line"/>
      <point x="459" y="414" type="line"/>
      <point x="459" y="332" type="line"/>
      <point x="105" y="332" type="line"/>
    </contour>
  </outline>
</glyph>
<glyph name="A" format="1">
  <advance width="570"/>
  <unicode hex="0041"/>
  <outline>
    <contour>
      <point x="455" y="178" type="line"/>
      <point x="455" y="268" type="line"/>
      <point x="131" y="268" type="line"/>
      <point x="131" y="178" type="line"/>
    </contour>
    <component base="V" yScale="-1" yOffset="685"/>
  </outline>
</glyph>
<glyph name="B" format="1">
  <advance width="571"/>
  <unicode hex="0042"/>
  <outline>
    <contour>
      <point x="303" y="425"/>
      <point x="353" y="459"/>
      <point x="353" y="505" type="curve" smooth="yes"/>
      <point x="353" y="551"/>
      <point x="312" y="595"/>
      <point x="268" y="595" type="curve" smooth="yes"/>
      <point x="56" y="595" type="line"/>
      <point x="56" y="685" type="line"/>
      <point x="257" y="685" type="line" smooth="yes"/>
      <point x="362" y="685"/>
      <point x="443" y="611"/>
      <point x="443" y="510" type="curve" smooth="yes"/>
      <point x="443" y="416"/>
      <point x="371" y="337"/>
      <point x="241" y="337" type="curve" smooth="yes"/>
      <point x="56" y="337" type="line"/>
      <point x="56" y="425" type="line"/>
      <point x="254" y="425" type="line" smooth="yes"/>
    </contour>
    <contour>
      <point x="364.0" y="90.0"/>
      <point x="427.0" y="136.0"/>
      <point x="427" y="216" type="curve" smooth="yes"/>
      <point x="427.0" y="292.0"/>
      <point x="347.120481928" y="337.0"/>
      <point x="271" y="337" type="curve" smooth="yes"/>
      <point x="56" y="337" type="line"/>
      <point x="56" y="425" type="line"/>
      <point x="284" y="425" type="line" smooth="yes"/>
      <point x="415.362139918" y="425.0"/>
      <point x="517.0" y="355.0"/>
      <point x="517" y="216" type="curve" smooth="yes"/>
      <point x="517.0" y="73.0"/>
      <point x="433.081712062" y="0.0"/>
      <point x="280" y="0" type="curve" smooth="yes"/>
      <point x="56" y="0" type="line"/>
      <point x="56" y="90" type="line"/>
      <point x="287" y="90" type="line" smooth="yes"/>
    </contour>
    <component base="I" xOffset="1"/>
  </outline>
</glyph>
<glyph name="C" format="1">
  <advance width="676"/>
  <unicode hex="0043"/>
  <outline>
    <contour>
      <point x="559" y="452" type="line"/>
      <point x="525" y="546"/>
      <point x="468" y="605"/>
      <point x="359" y="605" type="curve"/>
      <point x="195" y="605"/>
      <point x="120" y="490"/>
      <point x="120" y="341" type="curve" smooth="yes"/>
      <point x="120" y="207"/>
      <point x="204" y="80"/>
      <point x="364" y="80" type="curve"/>
      <point x="454" y="80"/>
      <point x="527" y="123"/>
      <point x="563" y="209" type="curve"/>
      <point x="646" y="169" type="line"/>
      <point x="606" y="70"/>
      <point x="508" y="-10"/>
      <point x="366" y="-10" type="curve"/>
      <point x="153" y="-10"/>
      <point x="30" y="148"/>
      <point x="30" y="337" type="curve" smooth="yes"/>
      <point x="30.0" y="575.0"/>
      <point x="181" y="695"/>
      <point x="363" y="695" type="curve"/>
      <point x="494" y="695"/>
      <point x="599.0" y="620.0"/>
      <point x="643" y="485" type="curve"/>
    </contour>
  </outline>
</glyph>
<glyph name="D" format="1">
  <advance width="605"/>
  <unicode hex="0044"/>
  <outline>
    <contour>
      <point x="401" y="90"/>
      <point x="485" y="173"/>
      <point x="485" y="343" type="curve" smooth="yes"/>
      <point x="485" y="497"/>
      <point x="390" y="596"/>
      <point x="205" y="596" type="curve" smooth="yes"/>
      <point x="55" y="596" type="line"/>
      <point x="55" y="686" type="line"/>
      <point x="237" y="686" type="line" smooth="yes"/>
      <point x="450" y="686"/>
      <point x="575" y="539"/>
      <point x="575" y="343" type="curve" smooth="yes"/>
      <point x="575" y="128"/>
      <point x="449" y="0"/>
      <point x="253" y="0" type="curve" smooth="yes"/>
      <point x="55" y="0" type="line"/>
      <point x="55" y="90" type="line"/>
      <point x="215" y="90" type="line" smooth="yes"/>
    </contour>
    <component base="I"/>
  </outline>
</glyph>
<glyph name="E" format="1">
  <advance width="573"/>
  <unicode hex="0045"/>
  <outline>
    <contour>
      <point x="463" y="314" type="line"/>
      <point x="55" y="314" type="line"/>
      <point x="55" y="404" type="line"/>
      <point x="463" y="404" type="line"/>
    </contour>
    <contour>
      <point x="55" y="0" type="line"/>
      <point x="55" y="90" type="line"/>
      <point x="543" y="90" type="line"/>
      <point x="543" y="0" type="line"/>
    </contour>
    <contour>
      <point x="523" y="595" type="line"/>
      <point x="55" y="595" type="line"/>
      <point x="55" y="685" type="line"/>
      <point x="523" y="685" type="line"/>
    </contour>
    <component base="I"/>
  </outline>
</glyph>
<glyph name="F" format="1">
  <advance width="522"/>
  <unicode hex="0046"/>
  <outline>
    <contour>
      <point x="422" y="303" type="line"/>
      <point x="55" y="303" type="line"/>
      <point x="55" y="393" type="line"/>
      <point x="422" y="393" type="line"/>
    </contour>
    <contour>
      <point x="55" y="0" type="curve"/>
      <point x="55" y="0"/>
      <point x="55" y="0"/>
    </contour>
    <contour>
      <point x="492" y="596" type="line"/>
      <point x="55" y="596" type="line"/>
      <point x="55" y="686" type="line"/>
      <point x="492" y="686" type="line"/>
    </contour>
    <component base="I"/>
  </outline>
</glyph>
<glyph name="G" format="1">
  <advance width="687"/>
  <unicode hex="0047"/>
  <outline>
    <contour>
      <point x="653" y="219" type="line"/>
      <point x="401" y="219" type="line"/>
      <point x="401" y="309" type="line"/>
      <point x="653" y="309" type="line"/>
    </contour>
    <contour>
      <point x="583" y="0" type="line"/>
      <point x="551" y="309" type="line"/>
      <point x="653" y="309" type="line"/>
      <point x="653" y="0" type="line"/>
    </contour>
    <component base="C"/>
  </outline>
</glyph>
<glyph name="H" format="1">
  <advance width="654"/>
  <unicode hex="0048"/>
  <outline>
    <contour>
      <point x="579" y="300" type="line"/>
      <point x="65" y="300" type="line"/>
      <point x="65" y="390" type="line"/>
      <point x="579" y="390" type="line"/>
    </contour>
    <component base="I" xOffset="442"/>
    <component base="I"/>
  </outline>
</glyph>
<glyph name="J" format="1">
  <advance width="452"/>
  <unicode hex="004A"/>
  <outline>
    <contour>
      <point x="261" y="79"/>
      <point x="295" y="124"/>
      <point x="295" y="177" type="curve" smooth="yes"/>
      <point x="295" y="685" type="line"/>
      <point x="385" y="685" type="line"/>
      <point x="385" y="187" type="line" smooth="yes"/>
      <point x="385" y="47"/>
      <point x="315" y="-11"/>
      <point x="204" y="-11" type="curve"/>
      <point x="82.2160493827" y="-11.0"/>
      <point x="42" y="62"/>
      <point x="23" y="127" type="curve"/>
      <point x="112" y="157" type="line"/>
      <point x="127" y="121"/>
      <point x="149.888888889" y="79.0"/>
      <point x="211" y="79" type="curve"/>
    </contour>
  </outline>
</glyph>
<glyph name="K" format="1">
  <advance width="623"/>
  <unicode hex="004B"/>
  <outline>
    <contour>
      <point x="514" y="685" type="line"/>
      <point x="635" y="685" type="line"/>
      <point x="126" y="107" type="line"/>
      <point x="58" y="168" type="line"/>
    </contour>
    <contour>
      <point x="532" y="0" type="line"/>
      <point x="281" y="369" type="line"/>
      <point x="356" y="422" type="line"/>
      <point x="643" y="0" type="line"/>
    </contour>
    <component base="I"/>
  </outline>
</glyph>
<glyph name="L" format="1">
  <advance width="508"/>
  <unicode hex="004C"/>
  <outline>
    <contour>
      <point x="478" y="0" type="line"/>
      <point x="55" y="0" type="line"/>
      <point x="55" y="90" type="line"/>
      <point x="478" y="90" type="line"/>
    </contour>
    <component base="I"/>
  </outline>
</glyph>
<glyph name="M" format="1">
  <advance width="775"/>
  <unicode hex="004D"/>
  <outline>
    <contour>
      <point x="436" y="0" type="line"/>
      <point x="347" y="0" type="line"/>
      <point x="562" y="685" type="line"/>
      <point x="661" y="685" type="line"/>
    </contour>
    <contour>
      <point x="337" y="0" type="line"/>
      <point x="113" y="685" type="line"/>
      <point x="212" y="685" type="line"/>
      <point x="426" y="0" type="line"/>
    </contour>
    <component base="I" xOffset="575"/>
    <component base="I"/>
  </outline>
</glyph>
<glyph name="N" format="1">
  <advance width="664"/>
  <unicode hex="004E"/>
  <outline>
    <contour>
      <point x="497" y="0" type="line"/>
      <point x="63" y="685" type="line"/>
      <point x="179" y="685" type="line"/>
      <point x="606" y="0" type="line"/>
    </contour>
    <component base="I" xOffset="464"/>
    <component base="I"/>
  </outline>
</glyph>
<glyph name="O" format="1">
  <advance width="748"/>
  <unicode hex="004F"/>
  <outline>
    <contour>
      <point x="375" y="605" type="curve" smooth="yes"/>
      <point x="231" y="605"/>
      <point x="120" y="476"/>
      <point x="120" y="337" type="curve" smooth="yes"/>
      <point x="120" y="203"/>
      <point x="234" y="80"/>
      <point x="375" y="80" type="curve" smooth="yes"/>
      <point x="515" y="80"/>
      <point x="630" y="203"/>
      <point x="630" y="337" type="curve" smooth="yes"/>
      <point x="630" y="476"/>
      <point x="518" y="605"/>
    </contour>
    <contour>
      <point x="375" y="695" type="curve" smooth="yes"/>
      <point x="574" y="695"/>
      <point x="720" y="534"/>
      <point x="720" y="337" type="curve" smooth="yes"/>
      <point x="720" y="144"/>
      <point x="572" y="-10"/>
      <point x="375" y="-10" type="curve" smooth="yes"/>
      <point x="177" y="-10"/>
      <point x="30" y="144"/>
      <point x="30" y="337" type="curve" smooth="yes"/>
      <point x="30" y="534"/>
      <point x="175" y="695"/>
    </contour>
  </outline>
</glyph>
<glyph name="P" format="1">
  <advance width="541"/>
  <unicode hex="0050"/>
  <outline>
    <contour>
      <point x="419" y="479" type="curve"/>
      <point x="419" y="553"/>
      <point x="366" y="595"/>
      <point x="284" y="595" type="curve" smooth="yes"/>
      <point x="134" y="595" type="line"/>
      <point x="134" y="685" type="line"/>
      <point x="276" y="685" type="line" smooth="yes"/>
      <point x="438" y="685"/>
      <point x="509" y="579"/>
      <point x="509" y="479" type="curve"/>
      <point x="509" y="383"/>
      <point x="442" y="277"/>
      <point x="274" y="277" type="curve" smooth="yes"/>
      <point x="134" y="277" type="line"/>
      <point x="134" y="367" type="line"/>
      <point x="286" y="367" type="line" smooth="yes"/>
      <point x="368" y="367"/>
      <point x="419" y="409"/>
    </contour>
    <component base="I"/>
  </outline>
</glyph>
<glyph name="Q" format="1">
  <advance width="748"/>
  <unicode hex="0051"/>
  <outline>
    <contour>
      <point x="628" y="-70" type="line"/>
      <point x="409" y="187" type="line"/>
      <point x="477" y="246" type="line"/>
      <point x="697" y="-11" type="line"/>
    </contour>
    <component base="O"/>
  </outline>
</glyph>
<glyph name="R" format="1">
  <advance width="540"/>
  <unicode hex="0052"/>
  <outline>
    <contour>
      <point x="254" y="287" type="line"/>
      <point x="343" y="314" type="line"/>
      <point x="530" y="0" type="line"/>
      <point x="418" y="0" type="line"/>
    </contour>
    <component base="P"/>
  </outline>
</glyph>
<glyph name="S" format="1">
  <advance width="601"/>
  <unicode hex="0053"/>
  <outline>
    <contour>
      <point x="480" y="523" type="line"/>
      <point x="427.975308642" y="572.0"/>
      <point x="395.061728395" y="600.0"/>
      <point x="308" y="600" type="curve"/>
      <point x="233.9375" y="600.0"/>
      <point x="158" y="559"/>
      <point x="158" y="498" type="curve"/>
      <point x="158" y="351"/>
      <point x="569" y="450"/>
      <point x="569" y="183" type="curve"/>
      <point x="569" y="53"/>
      <point x="468.135458167" y="-10.0"/>
      <point x="308" y="-10" type="curve"/>
      <point x="174.791666667" y="-10.0"/>
      <point x="71.5069444444" y="55.0"/>
      <point x="30" y="125" type="curve"/>
      <point x="105" y="176" type="line"/>
      <point x="147.887323944" y="119.0"/>
      <point x="213.647887324" y="80.0"/>
      <point x="308" y="80" type="curve"/>
      <point x="395.093167702" y="80.0"/>
      <point x="479.0" y="109.0"/>
      <point x="479" y="175" type="curve"/>
      <point x="479" y="362"/>
      <point x="68" y="241"/>
      <point x="68" y="499" type="curve"/>
      <point x="68.0" y="606.0"/>
      <point x="190.88" y="690.0"/>
      <point x="308" y="690" type="curve"/>
      <point x="422.680851064" y="690.0"/>
      <point x="490.676170213" y="644.0"/>
      <point x="553" y="577" type="curve"/>
    </contour>
  </outline>
</glyph>
<glyph name="T" format="1">
  <advance width="525"/>
  <unicode hex="0054"/>
  <outline>
    <contour>
      <point x="535" y="595" type="line"/>
      <point x="-10" y="595" type="line"/>
      <point x="-10" y="685" type="line"/>
      <point x="535" y="685" type="line"/>
    </contour>
    <component base="I" xOffset="163"/>
  </outline>
</glyph>
<glyph name="U" format="1">
  <advance width="656"/>
  <unicode hex="0055"/>
  <outline>
    <contour>
      <point x="317" y="-10" type="curve" smooth="yes"/>
      <point x="476" y="-10"/>
      <point x="578" y="68"/>
      <point x="578" y="237" type="curve" smooth="yes"/>
      <point x="578" y="685" type="line"/>
      <point x="488" y="685" type="line"/>
      <point x="488" y="234" type="line" smooth="yes"/>
      <point x="488" y="135"/>
      <point x="398" y="80"/>
      <point x="317" y="80" type="curve" smooth="yes"/>
      <point x="236" y="80"/>
      <point x="145" y="128"/>
      <point x="145" y="234" type="curve" smooth="yes"/>
      <point x="145" y="685" type="line"/>
      <point x="55" y="685" type="line"/>
      <point x="55" y="237" type="line" smooth="yes"/>
      <point x="55" y="68"/>
      <point x="158" y="-10"/>
    </contour>
  </outline>
</glyph>
<glyph name="V" format="1">
  <advance width="570"/>
  <unicode hex="0056"/>
  <outline>
    <contour>
      <point x="-15" y="685" type="line"/>
      <point x="84" y="685" type="line"/>
      <point x="327" y="0" type="line"/>
      <point x="230" y="0" type="line"/>
    </contour>
    <contour>
      <point x="588" y="685" type="line"/>
      <point x="343" y="0" type="line"/>
      <point x="246" y="0" type="line"/>
      <point x="489" y="685" type="line"/>
    </contour>
  </outline>
</glyph>
<glyph name="W" format="1">
  <advance width="896"/>
  <unicode hex="0057"/>
  <outline>
    <contour>
      <point x="910" y="685" type="line"/>
      <point x="695" y="0" type="line"/>
      <point x="604" y="0" type="line"/>
      <point x="817" y="685" type="line"/>
    </contour>
    <contour>
      <point x="398" y="685" type="line"/>
      <point x="500" y="685" type="line"/>
      <point x="692" y="0" type="line"/>
      <point x="598" y="0" type="line"/>
    </contour>
    <contour>
      <point x="496" y="685" type="line"/>
      <point x="297" y="0" type="line"/>
      <point x="206" y="0" type="line"/>
      <point x="397" y="685" type="line"/>
    </contour>
    <contour>
      <point x="-14" y="685" type="line"/>
      <point x="82" y="685" type="line"/>
      <point x="294" y="0" type="line"/>
      <point x="200" y="0" type="line"/>
    </contour>
  </outline>
</glyph>
<glyph name="X" format="1">
  <advance width="548"/>
  <unicode hex="0058"/>
  <outline>
    <contour>
      <point x="547" y="685" type="line"/>
      <point x="93" y="0" type="line"/>
      <point x="-15" y="0" type="line"/>
      <point x="439" y="685" type="line"/>
    </contour>
    <contour>
      <point x="-6" y="685" type="line"/>
      <point x="102" y="685" type="line"/>
      <point x="564" y="0" type="line"/>
      <point x="456" y="0" type="line"/>
    </contour>
  </outline>
</glyph>
<glyph name="Y" format="1">
  <advance width="537"/>
  <unicode hex="0059"/>
  <outline>
    <contour>
      <point x="542" y="685" type="line"/>
      <point x="313" y="264" type="line"/>
      <point x="223" y="264" type="line"/>
      <point x="448" y="685" type="line"/>
    </contour>
    <contour>
      <point x="-5" y="685" type="line"/>
      <point x="89" y="685" type="line"/>
      <point x="313" y="264" type="line"/>
      <point x="223" y="264" type="line"/>
    </contour>
    <component base="I" yScale="0.385917869081" xOffset="168"/>
  </outline>
</glyph>
<glyph name="Z" format="1">
  <advance width="608"/>
  <unicode hex="005A"/>
  <outline>
    <contour>
      <point x="30" y="0" type="line"/>
      <point x="30" y="90" type="line"/>
      <point x="578" y="90" type="line"/>
      <point x="578" y="0" type="line"/>
    </contour>
    <contour>
      <point x="568" y="595" type="line"/>
      <point x="50" y="595" type="line"/>
      <point x="50" y="685" type="line"/>
      <point x="568" y="685" type="line"/>
    </contour>
    <contour>
      <point x="30" y="90" type="line"/>
      <point x="495" y="656" type="line"/>
      <point x="568" y="595" type="line"/>
      <point x="102" y="35" type="line"/>
    </contour>
  </outline>
</glyph>
<glyph name="underscore" format="1">
  <advance width="565"/>
  <unicode hex="005F"/>
  <outline>
    <contour>
      <point x="0" y="0" type="line"/>
      <point x="565" y="0" type="line"/>
      <point x="565" y="-42" type="line"/>
      <point x="0" y="-42" type="line"/>
    </contour>
  </outline>
</glyph>
<glyph name="grave" format="1">
  <advance width="532"/>
  <unicode hex="0060"/>
  <outline>
    <component base="acute" xScale="-1" xOffset="526"/>
    <contour>
      <point x="248" y="510" type="move" name="_top"/>
    </contour>
  </outline>
</glyph>
<glyph name="a" format="1">
  <advance width="516"/>
  <unicode hex="0061"/>
  <outline>
    <contour>
      <point x="29" y="388" type="line"/>
      <point x="87" y="478"/>
      <point x="158" y="505"/>
      <point x="251" y="505" type="curve" smooth="yes"/>
      <point x="361" y="505"/>
      <point x="457" y="460"/>
      <point x="452" y="320" type="curve" smooth="yes"/>
      <point x="445" y="138" type="line" smooth="yes"/>
      <point x="444" y="104"/>
      <point x="451" y="73"/>
      <point x="517" y="84" type="curve"/>
      <point x="505" y="-5" type="line"/>
      <point x="399" y="-20"/>
      <point x="350" y="10"/>
      <point x="355" y="142" type="curve" smooth="yes"/>
      <point x="362" y="324" type="line" smooth="yes"/>
      <point x="365" y="396"/>
      <point x="310" y="417"/>
      <point x="251" y="417" type="curve"/>
      <point x="193" y="417"/>
      <point x="144" y="398"/>
      <point x="109" y="347" type="curve"/>
    </contour>
    <contour>
      <point x="405" y="225" type="line"/>
      <point x="316" y="233"/>
      <point x="115" y="233"/>
      <point x="115" y="139" type="curve"/>
      <point x="115" y="101"/>
      <point x="149" y="71"/>
      <point x="205" y="71" type="curve"/>
      <point x="265.138728324" y="71.0"/>
      <point x="358" y="123"/>
      <point x="358" y="228" type="curve"/>
      <point x="410" y="222" type="line"/>
      <point x="398" y="79"/>
      <point x="323.873913043" y="-13.0"/>
      <point x="197" y="-13" type="curve"/>
      <point x="107" y="-13"/>
      <point x="25" y="27"/>
      <point x="25" y="137" type="curve"/>
      <point x="25" y="272"/>
      <point x="228" y="323"/>
      <point x="413" y="305" type="curve"/>
    </contour>
    <contour>
      <point x="257.0" y="510.0" type="move" name="top"/>
    </contour>
  </outline>
</glyph>
<glyph name="c" format="1">
  <advance width="498"/>
  <unicode hex="0063"/>
  <outline>
    <contour>
      <point x="391" y="328" type="line"/>
      <point x="378" y="377"/>
      <point x="332" y="420"/>
      <point x="271" y="420" type="curve" smooth="yes"/>
      <point x="172" y="420"/>
      <point x="115" y="347"/>
      <point x="115" y="248" type="curve" smooth="yes"/>
      <point x="115" y="159"/>
      <point x="163" y="80"/>
      <point x="269" y="80" type="curve" smooth="yes"/>
      <point x="325" y="80"/>
      <point x="373" y="118"/>
      <point x="394" y="167" type="curve"/>
      <point x="478" y="132" type="line"/>
      <point x="440" y="38"/>
      <point x="357" y="-10"/>
      <point x="267" y="-10" type="curve" smooth="yes"/>
      <point x="140" y="-10"/>
      <point x="25" y="61"/>
      <point x="25" y="245" type="curve" smooth="yes"/>
      <point x="25" y="414"/>
      <point x="138" y="510"/>
      <point x="269" y="510" type="curve" smooth="yes"/>
      <point x="377" y="510"/>
      <point x="450" y="448"/>
      <point x="476" y="360" type="curve"/>
    </contour>
  </outline>
</glyph>
<glyph name="e" format="1">
  <advance width="518"/>
  <unicode hex="0065"/>
  <outline>
    <contour>
      <point x="85" y="312" type="line"/>
      <point x="417" y="312" type="line"/>
      <point x="417" y="222" type="line"/>
      <point x="85" y="222" type="line"/>
    </contour>
    <contour>
      <point x="470" y="125" type="line"/>
      <point x="441" y="39"/>
      <point x="351" y="-10"/>
      <point x="263" y="-10" type="curve" smooth="yes"/>
      <point x="137" y="-10"/>
      <point x="25" y="66"/>
      <point x="25" y="248" type="curve" smooth="yes"/>
      <point x="25.0" y="419.0"/>
      <point x="137" y="510"/>
      <point x="249" y="510" type="curve" smooth="yes"/>
      <point x="378" y="510"/>
      <point x="483" y="427"/>
      <point x="470" y="222" type="curve"/>
      <point x="380" y="222" type="line"/>
      <point x="388" y="352"/>
      <point x="334" y="420"/>
      <point x="249" y="420" type="curve" smooth="yes"/>
      <point x="173" y="420"/>
      <point x="115" y="356"/>
      <point x="115" y="248" type="curve" smooth="yes"/>
      <point x="115" y="153"/>
      <point x="170" y="80"/>
      <point x="266" y="80" type="curve" smooth="yes"/>
      <point x="320" y="80"/>
      <point x="367" y="114"/>
      <point x="387" y="161" type="curve"/>
    </contour>
  </outline>
</glyph>
<glyph name="f" format="1">
  <advance width="325"/>
  <unicode hex="0066"/>
  <outline>
    <contour>
      <point x="197" y="0" type="line"/>
      <point x="107" y="0" type="line"/>
      <point x="107" y="565" type="line" smooth="yes"/>
      <point x="107" y="644"/>
      <point x="176" y="714"/>
      <point x="303" y="676" type="curve"/>
      <point x="298" y="586" type="line"/>
      <point x="244" y="607"/>
      <point x="197" y="581"/>
      <point x="197" y="539" type="curve" smooth="yes"/>
    </contour>
    <contour>
      <point x="23" y="410" type="line"/>
      <point x="23" y="500" type="line"/>
      <point x="307" y="500" type="line"/>
      <point x="307" y="410" type="line"/>
    </contour>
  </outline>
</glyph>
<glyph name="g" format="1">
  <advance width="526"/>
  <unicode hex="0067"/>
  <outline>
    <contour>
      <point x="516" y="391" type="line"/>
      <point x="462" y="410"/>
      <point x="409" y="389"/>
      <point x="409" y="311" type="curve"/>
      <point x="359" y="340" type="line"/>
      <point x="380.83248731" y="461.968253968"/>
      <point x="452" y="522"/>
      <point x="546" y="476" type="curve"/>
    </contour>
    <contour>
      <point x="205" y="186" type="line"/>
      <point x="192" y="171"/>
      <point x="144.0" y="163.0"/>
      <point x="144" y="133" type="curve"/>
      <point x="144.0" y="24.0"/>
      <point x="473.0" y="148.0"/>
      <point x="473" y="-70" type="curve"/>
      <point x="473" y="-169"/>
      <point x="389" y="-231"/>
      <point x="242" y="-231" type="curve"/>
      <point x="67" y="-231"/>
      <point x="15" y="-156"/>
      <point x="15" y="-83" type="curve" smooth="yes"/>
      <point x="15" y="-15"/>
      <point x="70" y="51"/>
      <point x="139" y="51" type="curve"/>
      <point x="224" y="11" type="line"/>
      <point x="180" y="-3"/>
      <point x="104" y="-15"/>
      <point x="104" y="-73" type="curve"/>
      <point x="104" y="-113"/>
      <point x="157" y="-141"/>
      <point x="241" y="-141" type="curve"/>
      <point x="325" y="-141"/>
      <point x="385" y="-116"/>
      <point x="383" y="-74" type="curve"/>
      <point x="383.0" y="30.0"/>
      <point x="43" y="-67"/>
      <point x="43" y="114" type="curve"/>
      <point x="43" y="179"/>
      <point x="78" y="207"/>
      <point x="136" y="238" type="curve"/>
    </contour>
    <contour>
      <point x="68" y="331" type="line"/>
      <point x="68" y="331"/>
      <point x="68" y="331"/>
      <point x="68" y="331" type="curve" smooth="yes"/>
      <point x="68" y="432"/>
      <point x="154" y="504"/>
      <point x="249" y="504" type="curve" smooth="yes"/>
      <point x="345" y="504"/>
      <point x="430" y="432"/>
      <point x="430" y="331" type="curve" smooth="yes"/>
      <point x="430" y="233"/>
      <point x="345" y="163"/>
      <point x="249" y="163" type="curve" smooth="yes"/>
      <point x="154" y="163"/>
      <point x="68" y="233"/>
      <point x="68" y="331" type="curve"/>
      <point x="158" y="331" type="line"/>
      <point x="158" y="288"/>
      <point x="194" y="247"/>
      <point x="249" y="247" type="curve" smooth="yes"/>
      <point x="305" y="247"/>
      <point x="340" y="288"/>
      <point x="340" y="331" type="curve" smooth="yes"/>
      <point x="340" y="376"/>
      <point x="305" y="420"/>
      <point x="249" y="420" type="curve" smooth="yes"/>
      <point x="194" y="420"/>
      <point x="158" y="376"/>
      <point x="158" y="331" type="curve" smooth="yes"/>
      <point x="158" y="331"/>
      <point x="158" y="331"/>
      <point x="158" y="331" type="curve"/>
    </contour>
  </outline>
</glyph>
<glyph name="j" format="1">
  <advance width="212"/>
  <unicode hex="006A"/>
  <outline>
    <contour>
      <point x="55" y="500" type="line"/>
      <point x="145" y="500" type="line"/>
      <point x="145" y="-45" type="line" smooth="yes"/>
      <point x="145" y="-104"/>
      <point x="100" y="-179"/>
      <point x="-13" y="-140" type="curve"/>
      <point x="-8" y="-51" type="line"/>
      <point x="36" y="-63"/>
      <point x="55" y="-50"/>
      <point x="55" y="-16" type="curve" smooth="yes"/>
    </contour>
    <contour>
      <point x="55" y="570" type="line"/>
      <point x="55" y="685" type="line"/>
      <point x="145" y="685" type="line"/>
      <point x="145" y="570" type="line"/>
    </contour>
  </outline>
</glyph>
<glyph name="k" format="1">
  <advance width="501"/>
  <unicode hex="006B"/>
  <outline>
    <contour>
      <point x="67" y="164" type="line"/>
      <point x="347" y="500" type="line"/>
      <point x="463" y="500" type="line"/>
      <point x="128" y="98" type="line" smooth="yes"/>
    </contour>
    <contour>
      <point x="401" y="0" type="line"/>
      <point x="213" y="275" type="line"/>
      <point x="269" y="345" type="line"/>
      <point x="506" y="0" type="line"/>
    </contour>
    <component base="l" yOffset="2"/>
  </outline>
</glyph>
<glyph name="l" format="1">
  <advance width="212"/>
  <unicode hex="006C"/>
  <outline>
    <contour>
      <point x="55" y="0" type="line"/>
      <point x="55" y="685" type="line"/>
      <point x="145" y="685" type="line"/>
      <point x="145" y="0" type="line"/>
    </contour>
  </outline>
</glyph>
<glyph name="m" format="1">
  <advance width="810"/>
  <unicode hex="006D"/>
  <outline>
    <contour>
      <point x="685" y="0" type="line"/>
      <point x="685" y="329" type="line" smooth="yes"/>
      <point x="685" y="391"/>
      <point x="638" y="424"/>
      <point x="585" y="424" type="curve" smooth="yes"/>
      <point x="520" y="424"/>
      <point x="460" y="372"/>
      <point x="460" y="284" type="curve"/>
      <point x="418" y="284" type="line"/>
      <point x="418" y="440"/>
      <point x="516" y="510"/>
      <point x="603" y="510" type="curve"/>
      <point x="702" y="510"/>
      <point x="775" y="448"/>
      <point x="775" y="359" type="curve" smooth="yes"/>
      <point x="775" y="0" type="line"/>
    </contour>
    <component base="n"/>
  </outline>
</glyph>
<glyph name="n" format="1">
  <advance width="530"/>
  <unicode hex="006E"/>
  <outline>
    <contour>
      <point x="370" y="0" type="line"/>
      <point x="370" y="329" type="line" smooth="yes"/>
      <point x="370" y="391"/>
      <point x="323" y="424"/>
      <point x="270" y="424" type="curve" smooth="yes"/>
      <point x="205" y="424"/>
      <point x="145" y="372"/>
      <point x="145" y="284" type="curve"/>
      <point x="103" y="284" type="line"/>
      <point x="103" y="440"/>
      <point x="201" y="510"/>
      <point x="288" y="510" type="curve"/>
      <point x="387" y="510"/>
      <point x="460" y="448"/>
      <point x="460" y="359" type="curve" smooth="yes"/>
      <point x="460" y="0" type="line"/>
    </contour>
    <contour>
      <point x="55" y="0" type="line"/>
      <point x="55" y="500" type="line"/>
      <point x="145" y="500" type="line"/>
      <point x="145" y="0" type="line"/>
    </contour>
  </outline>
</glyph>
<glyph name="o" format="1">
  <advance width="558"/>
  <unicode hex="006F"/>
  <outline>
    <contour>
      <point x="279" y="80" type="curve" smooth="yes"/>
      <point x="369" y="80"/>
      <point x="433" y="148"/>
      <point x="433" y="249" type="curve" smooth="yes"/>
      <point x="433" y="352"/>
      <point x="369" y="420"/>
      <point x="279" y="420" type="curve" smooth="yes"/>
      <point x="189" y="420"/>
      <point x="125" y="352"/>
      <point x="125" y="249" type="curve" smooth="yes"/>
      <point x="125" y="148"/>
      <point x="189" y="80"/>
    </contour>
    <contour>
      <point x="279" y="-10" type="curve" smooth="yes"/>
      <point x="142" y="-10"/>
      <point x="35" y="88"/>
      <point x="35" y="249" type="curve" smooth="yes"/>
      <point x="35" y="410"/>
      <point x="147" y="510"/>
      <point x="279" y="510" type="curve" smooth="yes"/>
      <point x="411" y="510"/>
      <point x="523" y="410"/>
      <point x="523" y="249" type="curve" smooth="yes"/>
      <point x="523" y="88"/>
      <point x="416" y="-10"/>
    </contour>
  </outline>
</glyph>
<glyph name="r" format="1">
  <advance width="364"/>
  <unicode hex="0072"/>
  <outline>
    <contour>
      <point x="67" y="0" type="line"/>
      <point x="67" y="500" type="line"/>
      <point x="157" y="500" type="line"/>
      <point x="157" y="0" type="line"/>
    </contour>
    <contour>
      <point x="333" y="399" type="line"/>
      <point x="310" y="412"/>
      <point x="289.774193548" y="418.0"/>
      <point x="266" y="418" type="curve" smooth="yes"/>
      <point x="210" y="418"/>
      <point x="157" y="369"/>
      <point x="157" y="314" type="curve"/>
      <point x="118" y="314" type="line"/>
      <point x="118" y="432"/>
      <point x="196" y="508"/>
      <point x="274" y="508" type="curve" smooth="yes"/>
      <point x="305.395348837" y="508.0"/>
      <point x="338" y="499"/>
      <point x="364" y="481" type="curve"/>
    </contour>
  </outline>
</glyph>
<glyph name="s" format="1">
  <advance width="466"/>
  <unicode hex="0073"/>
  <outline>
    <contour>
      <point x="361" y="355" type="line"/>
      <point x="334" y="397"/>
      <point x="297" y="416"/>
      <point x="232" y="416" type="curve" smooth="yes"/>
      <point x="178" y="416"/>
      <point x="142" y="399"/>
      <point x="142" y="363" type="curve"/>
      <point x="142" y="340"/>
      <point x="161" y="320"/>
      <point x="194" y="313" type="curve" smooth="yes"/>
      <point x="289" y="292" type="line" smooth="yes"/>
      <point x="359" y="277"/>
      <point x="441" y="238"/>
      <point x="441" y="146" type="curve"/>
      <point x="441" y="57"/>
      <point x="356" y="-5"/>
      <point x="241" y="-5" type="curve" smooth="yes"/>
      <point x="148" y="-5"/>
      <point x="52" y="40"/>
      <point x="25" y="107" type="curve"/>
      <point x="96" y="161" type="line"/>
      <point x="119" y="115"/>
      <point x="175" y="84"/>
      <point x="241" y="84" type="curve"/>
      <point x="298" y="84"/>
      <point x="351" y="95"/>
      <point x="351" y="139" type="curve"/>
      <point x="351" y="178"/>
      <point x="304" y="197"/>
      <point x="267" y="205" type="curve" smooth="yes"/>
      <point x="171" y="227" type="line" smooth="yes"/>
      <point x="110" y="241"/>
      <point x="52" y="276"/>
      <point x="52" y="367" type="curve"/>
      <point x="52" y="445"/>
      <point x="128" y="505"/>
      <point x="232" y="505" type="curve" smooth="yes"/>
      <point x="330" y="505"/>
      <point x="392" y="471"/>
      <point x="428" y="412" type="curve"/>
    </contour>
  </outline>
</glyph>
<glyph name="t" format="1">
  <advance width="332"/>
  <unicode hex="0074"/>
  <outline>
    <contour>
      <point x="189" y="612" type="line"/>
      <point x="189" y="135" type="line" smooth="yes"/>
      <point x="189" y="94"/>
      <point x="227" y="74"/>
      <point x="297" y="92" type="curve"/>
      <point x="302" y="6" type="line"/>
      <point x="157" y="-26"/>
      <point x="99" y="38"/>
      <point x="99" y="112" type="curve" smooth="yes"/>
      <point x="99" y="612" type="line"/>
    </contour>
    <contour>
      <point x="15" y="500" type="line"/>
      <point x="299" y="500" type="line"/>
      <point x="299" y="410" type="line"/>
      <point x="15" y="410" type="line"/>
    </contour>
  </outline>
</glyph>
<glyph name="v" format="1">
  <advance width="457"/>
  <unicode hex="0076"/>
  <outline>
    <contour>
      <point x="280" y="0" type="line"/>
      <point x="188" y="0" type="line"/>
      <point x="377" y="500" type="line"/>
      <point x="477" y="500" type="line"/>
    </contour>
    <contour>
      <point x="177" y="0" type="line"/>
      <point x="-20" y="500" type="line"/>
      <point x="80" y="500" type="line"/>
      <point x="269" y="0" type="line"/>
    </contour>
  </outline>
</glyph>
<glyph name="w" format="1">
  <advance width="714"/>
  <unicode hex="0077"/>
  <outline>
    <contour>
      <point x="257" y="0" type="line"/>
      <point x="161" y="0" type="line"/>
      <point x="312" y="500" type="line"/>
      <point x="398" y="500" type="line"/>
    </contour>
    <contour>
      <point x="155" y="0" type="line"/>
      <point x="10" y="500" type="line"/>
      <point x="102" y="500" type="line"/>
      <point x="247" y="0" type="line"/>
    </contour>
    <contour>
      <point x="568" y="0" type="line"/>
      <point x="476" y="0" type="line"/>
      <point x="612" y="500" type="line"/>
      <point x="704" y="500" type="line"/>
    </contour>
    <contour>
      <point x="466" y="0" type="line"/>
      <point x="316" y="500" type="line"/>
      <point x="402" y="500" type="line"/>
      <point x="562" y="0" type="line"/>
    </contour>
  </outline>
</glyph>
<glyph name="x" format="1">
  <advance width="502"/>
  <unicode hex="0078"/>
  <outline>
    <contour>
      <point x="116" y="0" type="line"/>
      <point x="16" y="0" type="line"/>
      <point x="354" y="500" type="line"/>
      <point x="454" y="500" type="line"/>
    </contour>
    <contour>
      <point x="385" y="0" type="line"/>
      <point x="37" y="500" type="line"/>
      <point x="137" y="500" type="line"/>
      <point x="485" y="0" type="line"/>
    </contour>
  </outline>
</glyph>
<glyph name="y" format="1">
  <advance width="463"/>
  <unicode hex="0079"/>
  <outline>
    <contour>
      <point x="191" y="0" type="line"/>
      <point x="-6" y="500" type="line"/>
      <point x="97" y="500" type="line"/>
      <point x="286" y="0" type="line"/>
    </contour>
    <contour>
      <point x="291" y="0" type="line" smooth="yes"/>
      <point x="268" y="-62"/>
      <point x="224" y="-154"/>
      <point x="105" y="-154" type="curve" smooth="yes"/>
      <point x="80" y="-154"/>
      <point x="51" y="-154"/>
      <point x="25" y="-134" type="curve"/>
      <point x="49" y="-48" type="line"/>
      <point x="70" y="-56"/>
      <point x="89" y="-60"/>
      <point x="105" y="-60" type="curve" smooth="yes"/>
      <point x="158" y="-60"/>
      <point x="182" y="-21"/>
      <point x="190" y="0" type="curve" smooth="yes"/>
      <point x="378" y="500" type="line"/>
      <point x="477" y="500" type="line"/>
    </contour>
  </outline>
</glyph>
<glyph name="z" format="1">
  <advance width="464"/>
  <unicode hex="007A"/>
  <outline>
    <contour>
      <point x="45" y="500" type="line"/>
      <point x="433" y="500" type="line"/>
      <point x="433" y="410" type="line"/>
      <point x="45" y="410" type="line"/>
    </contour>
    <contour>
      <point x="93" y="25" type="line"/>
      <point x="30" y="90" type="line"/>
      <point x="367" y="472" type="line"/>
      <point x="433" y="410" type="line"/>
    </contour>
    <contour>
      <point x="30" y="90" type="line"/>
      <point x="439" y="90" type="line"/>
      <point x="439" y="0" type="line"/>
      <point x="30" y="0" type="line"/>
    </contour>
  </outline>
</glyph>
<glyph name="bar" format="1">
  <advance width="212"/>
  <unicode hex="007C"/>
  <outline>
    <contour>
      <point x="55" y="-185" type="line"/>
      <point x="55" y="685" type="line"/>
      <point x="157" y="685" type="line"/>
      <point x="157" y="-185" type="line"/>
    </contour>
  </outline>
</glyph>
<glyph name="exclamdown" format="1">
  <advance width="212"/>
  <unicode hex="00A1"/>
  <outline>
    <contour>
      <point x="58" y="244" type="line"/>
      <point x="55" y="0" type="line"/>
      <point x="157" y="0" type="line"/>
      <point x="154" y="244" type="line"/>
      <point x="147" y="500" type="line"/>
      <point x="65" y="500" type="line"/>
    </contour>
    <contour>
      <point x="55" y="570" type="line"/>
      <point x="157" y="570" type="line"/>
      <point x="157" y="685" type="line"/>
      <point x="55" y="685" type="line"/>
    </contour>
  </outline>
</glyph>
<glyph name="dieresis" format="1">
  <advance width="403"/>
  <unicode hex="00A8"/>
  <outline>
    <contour>
      <point x="233" y="570" type="line"/>
      <point x="233" y="685" type="line"/>
      <point x="335" y="685" type="line"/>
      <point x="335" y="570" type="line"/>
    </contour>
    <contour>
      <point x="55" y="570" type="line"/>
      <point x="55" y="685" type="line"/>
      <point x="157" y="685" type="line"/>
      <point x="157" y="570" type="line"/>
    </contour>
  </outline>
</glyph>
<glyph name="copyright" format="1">
  <advance width="323"/>
  <unicode hex="00A9"/>
  <outline>
    <contour>
      <point x="159" y="693" type="curve" smooth="yes"/>
      <point x="111" y="693"/>
      <point x="70" y="652"/>
      <point x="70" y="603" type="curve" smooth="yes"/>
      <point x="70" y="554"/>
      <point x="111" y="514"/>
      <point x="159" y="514" type="curve" smooth="yes"/>
      <point x="208" y="514"/>
      <point x="249" y="554"/>
      <point x="249" y="603" type="curve" smooth="yes"/>
      <point x="249" y="652"/>
      <point x="208" y="693"/>
    </contour>
    <contour>
      <point x="159" y="723" type="curve" smooth="yes"/>
      <point x="225" y="723"/>
      <point x="280" y="669"/>
      <point x="280" y="603" type="curve" smooth="yes"/>
      <point x="280" y="537"/>
      <point x="225" y="483"/>
      <point x="159" y="483" type="curve" smooth="yes"/>
      <point x="94" y="483"/>
      <point x="39" y="537"/>
      <point x="39" y="603" type="curve" smooth="yes"/>
      <point x="39" y="669"/>
      <point x="94" y="723"/>
    </contour>
    <component base="C" xScale="0.159490715967" yScale="0.159490715967" xOffset="103" yOffset="550"/>
  </outline>
</glyph>
<glyph name="guillemotleft" format="1">
  <advance width="665"/>
  <unicode hex="00AB"/>
  <outline>
    <contour>
      <point x="248" y="57" type="line"/>
      <point x="316" y="125" type="line"/>
      <point x="122" y="305" type="line"/>
      <point x="310" y="493" type="line"/>
      <point x="242" y="561" type="line"/>
      <point x="-4" y="306" type="line"/>
    </contour>
    <contour>
      <point x="494" y="57" type="line"/>
      <point x="562" y="125" type="line"/>
      <point x="368" y="305" type="line"/>
      <point x="556" y="493" type="line"/>
      <point x="488" y="561" type="line"/>
      <point x="241" y="305" type="line"/>
    </contour>
  </outline>
</glyph>
<glyph name="cedilla" format="1">
  <advance width="630"/>
  <unicode hex="00B8"/>
  <outline>
    <contour>
      <point x="270" y="-10" type="line"/>
      <point x="204" y="-86" type="line"/>
      <point x="177" y="-83" type="line"/>
      <point x="210" y="-68"/>
      <point x="235" y="-50"/>
      <point x="270" y="-50" type="curve" smooth="yes"/>
      <point x="332" y="-50"/>
      <point x="395" y="-81"/>
      <point x="395" y="-163" type="curve" smooth="yes"/>
      <point x="395.0" y="-220.0"/>
      <point x="347.666666667" y="-284.0"/>
      <point x="253" y="-284" type="curve" smooth="yes"/>
      <point x="208.323741007" y="-284.0"/>
      <point x="134" y="-263"/>
      <point x="115" y="-203" type="curve"/>
      <point x="179" y="-168" type="line"/>
      <point x="194" y="-203"/>
      <point x="229" y="-210"/>
      <point x="255" y="-210" type="curve" smooth="yes"/>
      <point x="289" y="-210"/>
      <point x="316" y="-192"/>
      <point x="316" y="-163" type="curve" smooth="yes"/>
      <point x="316" y="-131"/>
      <point x="289" y="-113"/>
      <point x="259" y="-113" type="curve" smooth="yes"/>
      <point x="238" y="-113"/>
      <point x="215" y="-121"/>
      <point x="204" y="-131" type="curve" smooth="yes"/>
      <point x="203" y="-131" type="line"/>
      <point x="129" y="-73" type="line"/>
      <point x="216" y="19" type="line"/>
    </contour>
  </outline>
</glyph>
<glyph name="germandbls" format="1">
  <advance width="580"/>
  <unicode hex="00DF"/>
  <outline>
    <contour>
      <point x="172" y="568"/>
      <point x="208.0" y="604.0"/>
      <point x="257.0" y="604.0" type="curve"/>
      <point x="307.0" y="604.0"/>
      <point x="340.0" y="563.0"/>
      <point x="340.0" y="524.0" type="curve"/>
      <point x="340.0" y="489.0"/>
      <point x="318.0" y="471.0"/>
      <point x="293.0" y="453.0" type="curve" smooth="yes"/>
      <point x="261.0" y="429.0"/>
      <point x="225.0" y="405.0"/>
      <point x="225.0" y="342.0" type="curve"/>
      <point x="225.0" y="246.0"/>
      <point x="288" y="236"/>
      <point x="345" y="222" type="curve" smooth="yes"/>
      <point x="390" y="211"/>
      <point x="431.0" y="198.0"/>
      <point x="431.0" y="140.0" type="curve"/>
      <point x="431.0" y="94.0"/>
      <point x="391.0" y="72.0"/>
      <point x="354.0" y="72.0" type="curve"/>
      <point x="310.0" y="72.0"/>
      <point x="286.0" y="83.0"/>
      <point x="257.0" y="96.0" type="curve"/>
      <point x="211.0" y="26.0" type="line"/>
      <point x="247.0" y="6.0"/>
      <point x="290.0" y="-10.0"/>
      <point x="351.0" y="-10.0" type="curve" smooth="yes"/>
      <point x="460.0" y="-10.0"/>
      <point x="530.0" y="51.0"/>
      <point x="530.0" y="140.0" type="curve"/>
      <point x="530.0" y="243.0"/>
      <point x="468" y="273"/>
      <point x="411" y="291" type="curve" smooth="yes"/>
      <point x="361" y="308"/>
      <point x="317" y="315"/>
      <point x="317" y="349" type="curve" smooth="yes"/>
      <point x="317" y="386"/>
      <point x="347" y="399"/>
      <point x="379" y="420" type="curve" smooth="yes"/>
      <point x="409" y="440"/>
      <point x="438" y="470"/>
      <point x="438" y="524" type="curve"/>
      <point x="438" y="616"/>
      <point x="370.0" y="690.0"/>
      <point x="257.0" y="690.0" type="curve"/>
      <point x="131.0" y="690.0"/>
      <point x="70" y="615"/>
      <point x="70.0" y="529.0" type="curve" smooth="yes"/>
      <point x="70" y="0" type="line"/>
      <point x="172" y="0" type="line"/>
      <point x="172.0" y="510.0" type="line" smooth="yes"/>
    </contour>
  </outline>
</glyph>
<glyph name="dotlessi" format="1">
  <advance width="212"/>
  <unicode hex="0131"/>
  <outline>
    <contour>
      <point x="55" y="0" type="line"/>
      <point x="55" y="500" type="line"/>
      <point x="145" y="500" type="line"/>
      <point x="145" y="0" type="line"/>
    </contour>
  </outline>
</glyph>
<glyph name="dotaccent" format="1">
  <advance width="212"/>
  <unicode hex="02D9"/>
  <outline>
    <contour>
      <point x="55" y="595" type="line"/>
      <point x="55" y="685" type="line"/>
      <point x="145" y="685" type="line"/>
      <point x="145" y="595" type="line"/>
    </contour>
  </outline>
</glyph>
<glyph name="uni0901" format="1">
  <advance width="0"/>
  <unicode hex="0901"/>
  <outline>
    <contour>
      <point x="-128" y="702" type="curve" smooth="yes"/>
      <point x="-34" y="702"/>
      <point x="12" y="762"/>
      <point x="12" y="822" type="curve" smooth="yes"/>
      <point x="12" y="843"/>
      <point x="11" y="854"/>
      <point x="1" y="880" type="curve"/>
      <point x="-62" y="868" type="line"/>
      <point x="-58" y="850"/>
      <point x="-56" y="840"/>
      <point x="-56" y="823" type="curve"/>
      <point x="-56" y="797"/>
      <point x="-76" y="772"/>
      <point x="-128" y="772" type="curve" smooth="yes"/>
      <point x="-162" y="772"/>
      <point x="-201" y="784"/>
      <point x="-244" y="846" type="curve"/>
      <point x="-283" y="812" type="line"/>
      <point x="-241" y="734"/>
      <point x="-170" y="702"/>
    </contour>
    <component base="uni0902"/>
  </outline>
</glyph>
<glyph name="uni090B" format="1">
  <advance width="874"/>
  <unicode hex="090B"/>
  <outline>
    <contour>
      <point x="449" y="401" type="line"/>
      <point x="570" y="294"/>
      <point x="673" y="361"/>
      <point x="673" y="450" type="curve"/>
      <point x="673" y="444"/>
      <point x="687" y="462"/>
      <point x="681" y="462" type="curve" smooth="yes"/>
      <point x="665" y="462"/>
      <point x="672" y="393"/>
      <point x="669" y="388" type="curve"/>
      <point x="583" y="444" type="line"/>
      <point x="591" y="492"/>
      <point x="637" y="544"/>
      <point x="692" y="544" type="curve"/>
      <point x="725" y="544"/>
      <point x="785" y="522"/>
      <point x="785" y="450" type="curve" smooth="yes"/>
      <point x="785" y="309"/>
      <point x="544" y="167"/>
      <point x="392" y="356" type="curve"/>
    </contour>
    <contour>
      <point x="643" y="505" type="line"/>
      <point x="758" y="422"/>
      <point x="866" y="370"/>
      <point x="866" y="245" type="curve" smooth="yes"/>
      <point x="866" y="87"/>
      <point x="719" y="4"/>
      <point x="568" y="41" type="curve"/>
      <point x="589" y="120" type="line"/>
      <point x="695" y="97"/>
      <point x="776" y="163"/>
      <point x="776" y="238" type="curve"/>
      <point x="776" y="336"/>
      <point x="674" y="380"/>
      <point x="583" y="444" type="curve"/>
    </contour>
    <component base="component_3" xOffset="1" yOffset="-319"/>
    <component base="component_6" xOffset="185"/>
    <component base="component_6" xOffset="-108"/>
    <component base="component_6" xOffset="482"/>
    <component base="l" xOffset="331"/>
    <component base="component_9"/>
  </outline>
</glyph>
<glyph name="uni0937" format="1">
  <advance width="600"/>
  <unicode hex="0937"/>
  <outline>
    <contour>
      <point x="118" y="555" type="line"/>
      <point x="169" y="628" type="line"/>
      <point x="485" y="421" type="line"/>
      <point x="434" y="348" type="line"/>
    </contour>
    <component base="uni092A"/>
  </outline>
</glyph>
<glyph name="uni0966" format="1">
  <advance width="526"/>
  <unicode hex="0966"/>
  <outline>
    <contour>
      <point x="126" y="343" type="curve" smooth="yes"/>
      <point x="126" y="274"/>
      <point x="140" y="215"/>
      <point x="166" y="167" type="curve" smooth="yes"/>
      <point x="193" y="119"/>
      <point x="226" y="96"/>
      <point x="263" y="96" type="curve" smooth="yes"/>
      <point x="300" y="96"/>
      <point x="333" y="119"/>
      <point x="359" y="167" type="curve" smooth="yes"/>
      <point x="386" y="215"/>
      <point x="400" y="274"/>
      <point x="400" y="343" type="curve" smooth="yes"/>
      <point x="400" y="411"/>
      <point x="386" y="469"/>
      <point x="359" y="516" type="curve" smooth="yes"/>
      <point x="333" y="564"/>
      <point x="300" y="589"/>
      <point x="263" y="589" type="curve" smooth="yes"/>
      <point x="226" y="589"/>
      <point x="193" y="564"/>
      <point x="166" y="516" type="curve" smooth="yes"/>
      <point x="140" y="469"/>
      <point x="126" y="411"/>
    </contour>
    <contour>
      <point x="30" y="343" type="line"/>
      <point x="30" y="437"/>
      <point x="53" y="518"/>
      <point x="99" y="585" type="curve" smooth="yes"/>
      <point x="144" y="652"/>
      <point x="199" y="685"/>
      <point x="263" y="685" type="curve" smooth="yes"/>
      <point x="327" y="685"/>
      <point x="382" y="652"/>
      <point x="427" y="585" type="curve" smooth="yes"/>
      <point x="473" y="518"/>
      <point x="496" y="437"/>
      <point x="496" y="343" type="curve" smooth="yes"/>
      <point x="496" y="248"/>
      <point x="473" y="167"/>
      <point x="427" y="100" type="curve" smooth="yes"/>
      <point x="382" y="33"/>
      <point x="327" y="0"/>
      <point x="263" y="0" type="curve" smooth="yes"/>
      <point x="199" y="0"/>
      <point x="144" y="33"/>
      <point x="99" y="100" type="curve" smooth="yes"/>
      <point x="53" y="167"/>
      <point x="30" y="248"/>
      <point x="30" y="343" type="curve"/>
    </contour>
  </outline>
</glyph>
<glyph name="uni096A" format="1">
  <advance width="533"/>
  <unicode hex="096A"/>
  <outline>
    <contour>
      <point x="20" y="685" type="curve"/>
      <point x="116" y="685" type="line"/>
      <point x="116" y="601"/>
      <point x="131" y="530"/>
      <point x="160" y="471" type="curve" smooth="yes"/>
      <point x="189" y="412"/>
      <point x="224" y="384"/>
      <point x="267" y="384" type="curve" smooth="yes"/>
      <point x="309" y="384"/>
      <point x="345" y="412"/>
      <point x="373" y="471" type="curve" smooth="yes"/>
      <point x="402" y="530"/>
      <point x="417" y="601"/>
      <point x="417" y="685" type="curve"/>
      <point x="513" y="685" type="line"/>
      <point x="513" y="537"/>
      <point x="465" y="412"/>
      <point x="383" y="343" type="curve"/>
      <point x="438" y="311"/>
      <point x="472" y="253"/>
      <point x="472" y="192" type="curve" smooth="yes"/>
      <point x="472" y="138"/>
      <point x="452" y="93"/>
      <point x="412" y="56" type="curve" smooth="yes"/>
      <point x="372" y="19"/>
      <point x="323" y="0"/>
      <point x="267" y="0" type="curve" smooth="yes"/>
      <point x="210" y="0"/>
      <point x="161" y="19"/>
      <point x="121" y="56" type="curve" smooth="yes"/>
      <point x="82" y="93"/>
      <point x="61" y="138"/>
      <point x="61" y="192" type="curve" smooth="yes"/>
      <point x="61" y="253"/>
      <point x="95" y="311"/>
      <point x="150" y="343" type="curve"/>
      <point x="68" y="399"/>
      <point x="20" y="527"/>
    </contour>
    <contour>
      <point x="157" y="192" type="line"/>
      <point x="157" y="138"/>
      <point x="206" y="96"/>
      <point x="267" y="96" type="curve" smooth="yes"/>
      <point x="327" y="96"/>
      <point x="376" y="138"/>
      <point x="376" y="192" type="curve" smooth="yes"/>
      <point x="376" y="245"/>
      <point x="327" y="288"/>
      <point x="267" y="288" type="curve" smooth="yes"/>
      <point x="206" y="288"/>
      <point x="157" y="245"/>
      <point x="157" y="192" type="curve"/>
    </contour>
  </outline>
</glyph>
<glyph name="uni096B" format="1">
  <advance width="526"/>
  <unicode hex="096B"/>
  <outline>
    <contour>
      <point x="30" y="685" type="line"/>
      <point x="126" y="685" type="line"/>
      <point x="126" y="521" type="line" smooth="yes"/>
      <point x="126" y="445"/>
      <point x="188" y="384"/>
      <point x="263" y="384" type="curve"/>
      <point x="236" y="432"/>
      <point x="222" y="477"/>
      <point x="222" y="521" type="curve" smooth="yes"/>
      <point x="222" y="566"/>
      <point x="236" y="606"/>
      <point x="262" y="637" type="curve" smooth="yes"/>
      <point x="289" y="669"/>
      <point x="322" y="685"/>
      <point x="359" y="685" type="curve" smooth="yes"/>
      <point x="396" y="685"/>
      <point x="429" y="669"/>
      <point x="455" y="637" type="curve" smooth="yes"/>
      <point x="482" y="606"/>
      <point x="496" y="566"/>
      <point x="496" y="521" type="curve" smooth="yes"/>
      <point x="496" y="443"/>
      <point x="460" y="366"/>
      <point x="400" y="315" type="curve"/>
      <point x="427" y="284"/>
      <point x="441" y="230"/>
      <point x="441" y="164" type="curve" smooth="yes"/>
      <point x="441" y="119"/>
      <point x="425" y="79"/>
      <point x="393" y="48" type="curve" smooth="yes"/>
      <point x="362" y="16"/>
      <point x="322" y="0"/>
      <point x="277" y="0" type="curve" smooth="yes"/>
      <point x="231" y="0"/>
      <point x="192" y="16"/>
      <point x="160" y="48" type="curve" smooth="yes"/>
      <point x="129" y="79"/>
      <point x="112" y="119"/>
      <point x="112" y="164" type="curve"/>
      <point x="208" y="164" type="line"/>
      <point x="208" y="126"/>
      <point x="238" y="96"/>
      <point x="277" y="96" type="curve" smooth="yes"/>
      <point x="315" y="96"/>
      <point x="345" y="126"/>
      <point x="345" y="164" type="curve" smooth="yes"/>
      <point x="345" y="199"/>
      <point x="331" y="240"/>
      <point x="304" y="288" type="curve"/>
      <point x="263" y="288" type="line" smooth="yes"/>
      <point x="199" y="288"/>
      <point x="144" y="311"/>
      <point x="99" y="356" type="curve" smooth="yes"/>
      <point x="53" y="401"/>
      <point x="30" y="456"/>
      <point x="30" y="521" type="curve" smooth="yes"/>
    </contour>
    <contour>
      <point x="318" y="521" type="curve" smooth="yes"/>
      <point x="318" y="470"/>
      <point x="330" y="429"/>
      <point x="352" y="411" type="curve"/>
      <point x="383" y="437"/>
      <point x="400" y="477"/>
      <point x="400" y="521" type="curve" smooth="yes"/>
      <point x="400" y="543"/>
      <point x="385" y="567"/>
      <point x="359" y="589" type="curve"/>
      <point x="333" y="574"/>
      <point x="318" y="548"/>
    </contour>
  </outline>
</glyph>
<glyph name="uni096C" format="1">
  <advance width="489"/>
  <unicode hex="096C"/>
  <outline>
    <contour>
      <point x="62" y="254" type="curve" smooth="yes"/>
      <point x="62" y="305"/>
      <point x="87" y="354"/>
      <point x="131" y="391" type="curve"/>
      <point x="104" y="417"/>
      <point x="89" y="461"/>
      <point x="89" y="514" type="curve" smooth="yes"/>
      <point x="89" y="564"/>
      <point x="106" y="606"/>
      <point x="137" y="640" type="curve" smooth="yes"/>
      <point x="169" y="675"/>
      <point x="209" y="692"/>
      <point x="254" y="692" type="curve" smooth="yes"/>
      <point x="302" y="692"/>
      <point x="346" y="679"/>
      <point x="377" y="651" type="curve"/>
      <point x="322" y="569" type="line"/>
      <point x="300" y="587"/>
      <point x="277" y="597"/>
      <point x="254" y="597" type="curve" smooth="yes"/>
      <point x="215" y="597"/>
      <point x="185" y="560"/>
      <point x="185" y="514" type="curve" smooth="yes"/>
      <point x="185" y="476"/>
      <point x="218" y="446"/>
      <point x="261" y="446" type="curve" smooth="yes"/>
      <point x="322" y="446" type="line"/>
      <point x="322" y="350" type="line"/>
      <point x="261" y="350" type="line" smooth="yes"/>
      <point x="204" y="350"/>
      <point x="158" y="313"/>
      <point x="158" y="268" type="curve" smooth="yes"/>
      <point x="158" y="214"/>
      <point x="207" y="172"/>
      <point x="268" y="172" type="curve"/>
      <point x="268" y="221"/>
      <point x="304" y="261"/>
      <point x="350" y="261" type="curve" smooth="yes"/>
      <point x="399" y="261"/>
      <point x="439" y="221"/>
      <point x="439" y="172" type="curve" smooth="yes"/>
      <point x="439" y="124"/>
      <point x="407" y="83"/>
      <point x="363" y="76" type="curve"/>
      <point x="359" y="50"/>
      <point x="340" y="18"/>
      <point x="309" y="-20" type="curve"/>
      <point x="213" y="-20" type="line"/>
      <point x="244" y="18"/>
      <point x="263" y="50"/>
      <point x="268" y="76" type="curve"/>
      <point x="211" y="76"/>
      <point x="162" y="94"/>
      <point x="122" y="128" type="curve" smooth="yes"/>
      <point x="83" y="162"/>
      <point x="62" y="205"/>
    </contour>
  </outline>
</glyph>
<glyph name="uni096D" format="1">
  <advance width="530"/>
  <unicode hex="096D"/>
  <outline>
    <contour>
      <point x="25" y="685" type="line"/>
      <point x="121" y="685" type="line"/>
      <point x="121" y="260" type="line" smooth="yes"/>
      <point x="121" y="215"/>
      <point x="136" y="175"/>
      <point x="165" y="144" type="curve" smooth="yes"/>
      <point x="194" y="112"/>
      <point x="229" y="96"/>
      <point x="272" y="96" type="curve" smooth="yes"/>
      <point x="309" y="96"/>
      <point x="341" y="114"/>
      <point x="368" y="148" type="curve" smooth="yes"/>
      <point x="395" y="182"/>
      <point x="409" y="225"/>
      <point x="409" y="274" type="curve"/>
      <point x="354" y="274" type="line" smooth="yes"/>
      <point x="311" y="274"/>
      <point x="276" y="295"/>
      <point x="247" y="334" type="curve" smooth="yes"/>
      <point x="218" y="374"/>
      <point x="203" y="423"/>
      <point x="203" y="480" type="curve" smooth="yes"/>
      <point x="203" y="536"/>
      <point x="218" y="585"/>
      <point x="247" y="625" type="curve" smooth="yes"/>
      <point x="276" y="664"/>
      <point x="311" y="685"/>
      <point x="354" y="685" type="curve" smooth="yes"/>
      <point x="396" y="685"/>
      <point x="432" y="664"/>
      <point x="461" y="625" type="curve" smooth="yes"/>
      <point x="489" y="585"/>
      <point x="505" y="536"/>
      <point x="505" y="480" type="curve" smooth="yes"/>
      <point x="505" y="274" type="line" smooth="yes"/>
      <point x="505" y="199"/>
      <point x="481" y="133"/>
      <point x="436" y="79" type="curve" smooth="yes"/>
      <point x="391" y="26"/>
      <point x="336" y="0"/>
      <point x="272" y="0" type="curve" smooth="yes"/>
      <point x="203" y="0"/>
      <point x="144" y="25"/>
      <point x="96" y="75" type="curve" smooth="yes"/>
      <point x="48" y="126"/>
      <point x="25" y="188"/>
      <point x="25" y="260" type="curve" smooth="yes"/>
    </contour>
    <contour>
      <point x="299" y="480" type="line"/>
      <point x="299" y="419"/>
      <point x="322" y="370"/>
      <point x="354" y="370" type="curve" smooth="yes"/>
      <point x="385" y="370"/>
      <point x="409" y="419"/>
      <point x="409" y="480" type="curve" smooth="yes"/>
      <point x="409" y="540"/>
      <point x="385" y="589"/>
      <point x="354" y="589" type="curve" smooth="yes"/>
      <point x="322" y="589"/>
      <point x="299" y="540"/>
      <point x="299" y="480" type="curve"/>
    </contour>
  </outline>
</glyph>
<glyph name="uni096E" format="1">
  <advance width="512"/>
  <unicode hex="096E"/>
  <outline>
    <contour>
      <point x="55" y="206" type="curve" smooth="yes"/>
      <point x="55" y="245"/>
      <point x="76" y="293"/>
      <point x="110" y="343" type="curve" smooth="yes"/>
      <point x="356" y="685" type="line"/>
      <point x="439" y="623" type="line"/>
      <point x="192" y="301" type="line" smooth="yes"/>
      <point x="165" y="267"/>
      <point x="151" y="233"/>
      <point x="151" y="206" type="curve" smooth="yes"/>
      <point x="151" y="145"/>
      <point x="200" y="96"/>
      <point x="261" y="96" type="curve" smooth="yes"/>
      <point x="308" y="96"/>
      <point x="352" y="129"/>
      <point x="370" y="178" type="curve"/>
      <point x="452" y="137" type="line"/>
      <point x="424" y="55"/>
      <point x="347" y="0"/>
      <point x="261" y="0" type="curve" smooth="yes"/>
      <point x="204" y="0"/>
      <point x="155" y="21"/>
      <point x="115" y="60" type="curve" smooth="yes"/>
      <point x="76" y="100"/>
      <point x="55" y="149"/>
    </contour>
  </outline>
</glyph>
<glyph name="uni096F" format="1">
  <advance width="510"/>
  <unicode hex="096F"/>
  <outline>
    <contour>
      <point x="60" y="514" type="curve" smooth="yes"/>
      <point x="60" y="564"/>
      <point x="79" y="606"/>
      <point x="116" y="640" type="curve" smooth="yes"/>
      <point x="153" y="675"/>
      <point x="198" y="692"/>
      <point x="252" y="692" type="curve" smooth="yes"/>
      <point x="301" y="692"/>
      <point x="344" y="676"/>
      <point x="378" y="642" type="curve" smooth="yes"/>
      <point x="412" y="609"/>
      <point x="430" y="569"/>
      <point x="430" y="521" type="curve" smooth="yes"/>
      <point x="430" y="476"/>
      <point x="412" y="436"/>
      <point x="378" y="405" type="curve" smooth="yes"/>
      <point x="344" y="373"/>
      <point x="301" y="357"/>
      <point x="252" y="357" type="curve"/>
      <point x="376" y="269"/>
      <point x="450" y="177"/>
      <point x="450" y="110" type="curve" smooth="yes"/>
      <point x="450" y="39"/>
      <point x="389" y="-20"/>
      <point x="313" y="-20" type="curve" smooth="yes"/>
      <point x="255" y="-20"/>
      <point x="200" y="24"/>
      <point x="176" y="90" type="curve"/>
      <point x="259" y="131" type="line"/>
      <point x="271" y="98"/>
      <point x="293" y="76"/>
      <point x="313" y="76" type="curve" smooth="yes"/>
      <point x="335" y="76"/>
      <point x="355" y="92"/>
      <point x="355" y="110" type="curve" smooth="yes"/>
      <point x="355" y="154"/>
      <point x="293" y="224"/>
      <point x="190" y="295" type="curve" smooth="yes"/>
      <point x="108" y="351"/>
      <point x="60" y="433"/>
    </contour>
    <contour>
      <point x="156" y="514" type="line"/>
      <point x="156" y="472"/>
      <point x="198" y="439"/>
      <point x="252" y="439" type="curve" smooth="yes"/>
      <point x="305" y="439"/>
      <point x="348" y="476"/>
      <point x="348" y="521" type="curve" smooth="yes"/>
      <point x="348" y="566"/>
      <point x="305" y="603"/>
      <point x="252" y="603" type="curve" smooth="yes"/>
      <point x="198" y="603"/>
      <point x="156" y="564"/>
      <point x="156" y="514" type="curve"/>
    </contour>
  </outline>
</glyph>
<glyph name="endash" format="1">
  <advance width="565"/>
  <unicode hex="2013"/>
  <outline>
    <contour>
      <point x="0" y="315" type="line"/>
      <point x="565" y="315" type="line"/>
      <point x="565" y="233" type="line"/>
      <point x="0" y="233" type="line"/>
    </contour>
  </outline>
</glyph>
<glyph name="emdash" format="1">
  <advance width="776"/>
  <unicode hex="2014"/>
  <outline>
    <contour>
      <point x="0" y="315" type="line"/>
      <point x="776" y="315" type="line"/>
      <point x="776" y="233" type="line"/>
      <point x="0" y="233" type="line"/>
    </contour>
  </outline>
</glyph>
<glyph name="quoteleft" format="1">
  <advance width="202"/>
  <unicode hex="2018"/>
  <outline>
    <contour>
      <point x="104" y="553" type="line"/>
      <point x="98" y="603"/>
      <point x="117" y="633"/>
      <point x="153" y="654" type="curve"/>
      <point x="131" y="685" type="line"/>
      <point x="86" y="657"/>
      <point x="57" y="621"/>
      <point x="55" y="553" type="curve"/>
      <point x="55" y="438" type="line"/>
      <point x="157" y="438" type="line"/>
      <point x="157" y="553" type="line"/>
    </contour>
  </outline>
</glyph>
<glyph name="quoteright" format="1">
  <advance width="202"/>
  <unicode hex="2019"/>
  <outline>
    <contour>
      <point x="108" y="570" type="line"/>
      <point x="114" y="520"/>
      <point x="95" y="490"/>
      <point x="59" y="469" type="curve"/>
      <point x="81" y="438" type="line"/>
      <point x="126" y="466"/>
      <point x="155" y="502"/>
      <point x="157" y="570" type="curve"/>
      <point x="157" y="685" type="line"/>
      <point x="55" y="685" type="line"/>
      <point x="55" y="570" type="line"/>
    </contour>
  </outline>
</glyph>
<glyph name="quotesinglbase" format="1">
  <advance width="202"/>
  <unicode hex="201A"/>
  <outline>
    <contour>
      <point x="108" y="0" type="line"/>
      <point x="114" y="-50"/>
      <point x="95" y="-80"/>
      <point x="59" y="-101" type="curve"/>
      <point x="81" y="-132" type="line"/>
      <point x="126" y="-104"/>
      <point x="155" y="-68"/>
      <point x="157" y="0" type="curve"/>
      <point x="157" y="115" type="line"/>
      <point x="55" y="115" type="line"/>
      <point x="55" y="0" type="line"/>
    </contour>
  </outline>
</glyph>
<glyph name="quotedblleft" format="1">
  <advance width="365"/>
  <unicode hex="201C"/>
  <outline>
    <contour>
      <point x="104" y="570" type="curve"/>
      <point x="157" y="570" type="line"/>
      <point x="157" y="685" type="line"/>
      <point x="55" y="685" type="line"/>
      <point x="55" y="570" type="line"/>
      <point x="57" y="502"/>
      <point x="86" y="466"/>
      <point x="131" y="438" type="curve"/>
      <point x="153" y="469" type="line"/>
      <point x="117" y="490"/>
      <point x="98" y="520"/>
    </contour>
    <contour>
      <point x="257" y="570" type="curve"/>
      <point x="310" y="570" type="line"/>
      <point x="310" y="685" type="line"/>
      <point x="208" y="685" type="line"/>
      <point x="208" y="570" type="line"/>
      <point x="210" y="502"/>
      <point x="239" y="466"/>
      <point x="284" y="438" type="curve"/>
      <point x="306" y="469" type="line"/>
      <point x="270" y="490"/>
      <point x="251" y="520"/>
    </contour>
  </outline>
</glyph>
<glyph name="quotedblbase" format="1">
  <advance width="365"/>
  <unicode hex="201E"/>
  <outline>
    <contour>
      <point x="261" y="0" type="line"/>
      <point x="267" y="-50"/>
      <point x="248" y="-80"/>
      <point x="212" y="-101" type="curve"/>
      <point x="234" y="-132" type="line"/>
      <point x="279" y="-104"/>
      <point x="308" y="-68"/>
      <point x="310" y="0" type="curve"/>
      <point x="310" y="115" type="line"/>
      <point x="208" y="115" type="line"/>
      <point x="208" y="0" type="line"/>
    </contour>
    <contour>
      <point x="108" y="0" type="line"/>
      <point x="114" y="-50"/>
      <point x="95" y="-80"/>
      <point x="59" y="-101" type="curve"/>
      <point x="81" y="-132" type="line"/>
      <point x="126" y="-104"/>
      <point x="155" y="-68"/>
      <point x="157" y="0" type="curve"/>
      <point x="157" y="115" type="line"/>
      <point x="55" y="115" type="line"/>
      <point x="55" y="0" type="line"/>
    </contour>
  </outline>
</glyph>
<glyph name="minus" format="1">
  <advance width="565"/>
  <unicode hex="2212"/>
  <outline>
    <contour>
      <point x="88" y="315" type="line"/>
      <point x="477" y="315" type="line"/>
      <point x="477" y="233" type="line"/>
      <point x="88" y="233" type="line"/>
    </contour>
  </outline>
</glyph>
<glyph name="f_f" format="1">
  <advance width="650"/>
  <unicode hex="FB00"/>
  <outline>
    <contour>
      <point x="197" y="0" type="line"/>
      <point x="107" y="0" type="line"/>
      <point x="107" y="572" type="line" smooth="yes"/>
      <point x="107" y="721"/>
      <point x="323" y="724"/>
      <point x="440" y="664" type="curve"/>
      <point x="435" y="574" type="line"/>
      <point x="391" y="617"/>
      <point x="197" y="658"/>
      <point x="197" y="546" type="curve" smooth="yes"/>
    </contour>
    <contour>
      <point x="23" y="410" type="line"/>
      <point x="23" y="500" type="line"/>
      <point x="307" y="500" type="line"/>
      <point x="307" y="410" type="line"/>
    </contour>
    <component base="f" xOffset="264"/>
  </outline>
</glyph>
<glyph name="fl" format="1">
  <advance width="537"/>
  <unicode hex="FB02"/>
  <outline>
    <contour>
      <point x="197" y="0" type="line"/>
      <point x="107" y="0" type="line"/>
      <point x="107" y="572" type="line" smooth="yes"/>
      <point x="107" y="698"/>
      <point x="258" y="722"/>
      <point x="385" y="684" type="curve"/>
      <point x="380" y="594" type="line"/>
      <point x="326" y="615"/>
      <point x="197" y="635"/>
      <point x="197" y="546" type="curve" smooth="yes"/>
    </contour>
    <contour>
      <point x="23" y="410" type="line"/>
      <point x="23" y="500" type="line"/>
      <point x="307" y="500" type="line"/>
      <point x="307" y="410" type="line"/>
    </contour>
    <component base="l" xOffset="325"/>
  </outline>
</glyph>
<glyph name="component_1" format="1">
  <advance width="501"/>
  <outline>
    <contour>
      <point x="398" y="685" type="line"/>
      <point x="398" y="754"/>
      <point x="335" y="782"/>
      <point x="255" y="782" type="curve" smooth="yes"/>
      <point x="104" y="782"/>
      <point x="23" y="828"/>
      <point x="23" y="950" type="curve"/>
      <point x="113" y="950" type="line"/>
      <point x="113" y="885"/>
      <point x="173" y="862"/>
      <point x="255" y="862" type="curve" smooth="yes"/>
      <point x="399" y="862"/>
      <point x="488" y="814"/>
      <point x="488" y="685" type="curve"/>
    </contour>
  </outline>
</glyph>
<glyph name="component_4" format="1">
  <advance width="500"/>
  <outline>
    <contour>
      <point x="439" y="950" type="line"/>
      <point x="439" y="820"/>
      <point x="358" y="766"/>
      <point x="248" y="766" type="curve" smooth="yes"/>
      <point x="139" y="766"/>
      <point x="61" y="815"/>
      <point x="61" y="950" type="curve"/>
      <point x="151" y="950" type="line"/>
      <point x="151" y="884"/>
      <point x="171" y="846"/>
      <point x="248" y="846" type="curve" smooth="yes"/>
      <point x="325" y="846"/>
      <point x="349" y="883"/>
      <point x="349" y="950" type="curve"/>
    </contour>
  </outline>
</glyph>
<glyph name="component_7" format="1">
  <advance width="863"/>
  <outline>
    <contour>
      <point x="585" y="251" type="line"/>
      <point x="679.0" y="223.538461538"/>
      <point x="725.0" y="290.230769231"/>
      <point x="725" y="353" type="curve"/>
      <point x="725.0" y="415.150943396"/>
      <point x="683.0" y="461.0"/>
      <point x="619" y="461" type="curve"/>
      <point x="565.0" y="461.0"/>
      <point x="506.0" y="420.926605505"/>
      <point x="506" y="349" type="curve"/>
      <point x="418" y="356" type="line"/>
      <point x="418" y="480"/>
      <point x="524" y="540"/>
      <point x="618" y="540" type="curve"/>
      <point x="724.0" y="540.0"/>
      <point x="815.0" y="478.340540541"/>
      <point x="815" y="353" type="curve"/>
      <point x="815.0" y="215.494623656"/>
      <point x="705.0" y="126.462365591"/>
      <point x="554" y="169" type="curve"/>
    </contour>
  </outline>
</glyph>
<glyph name="uni0917" format="1">
  <advance width="557"/>
  <outline>
    <contour>
      <point x="98" y="326" type="line"/>
      <point x="98" y="670" type="line"/>
      <point x="192" y="670" type="line"/>
      <point x="192" y="326" type="line"/>
    </contour>
    <contour>
      <point x="113" y="299" type="curve"/>
      <point x="91" y="295" type="line"/>
      <point x="100" y="302" type="line"/>
      <point x="98" y="326" type="line"/>
      <point x="192" y="326" type="line"/>
      <point x="192" y="236"/>
      <point x="151" y="203"/>
      <point x="128" y="203" type="curve"/>
      <point x="45" y="203"/>
      <point x="-5" y="273"/>
      <point x="-5" y="336" type="curve"/>
      <point x="-5" y="393"/>
      <point x="66" y="366"/>
      <point x="113" y="366" type="curve" smooth="yes"/>
      <point x="113" y="366"/>
      <point x="113" y="299"/>
    </contour>
    <component base="uni094E" xOffset="273"/>
    <component base="component_6" xOffset="-108"/>
  </outline>
</glyph>
<glyph name="uni093B" format="1">
  <advance width="284"/>
  <outline>
    <contour>
      <point x="97" y="0" type="line"/>
      <point x="97" y="850" type="line"/>
      <point x="187" y="850" type="line"/>
      <point x="187" y="0" type="line"/>
    </contour>
    <component base="component_6" xOffset="-108"/>
  </outline>
</glyph>
<glyph name="uni0946" format="1">
  <advance width="0"/>
  <outline>
    <contour>
      <point x="-80" y="685" type="line"/>
      <point x="-80" y="754"/>
      <point x="-143" y="782"/>
      <point x="-223" y="782" type="curve" smooth="yes"/>
      <point x="-374" y="782"/>
      <point x="-455" y="828"/>
      <point x="-455" y="950" type="curve"/>
      <point x="-365" y="950" type="line"/>
      <point x="-365" y="885"/>
      <point x="-305" y="862"/>
      <point x="-223" y="862" type="curve" smooth="yes"/>
      <point x="-79" y="862"/>
      <point x="10" y="814"/>
      <point x="10" y="685" type="curve"/>
    </contour>
  </outline>
</glyph>
<glyph name="uni0947" format="1">
  <advance width="0"/>
  <outline>
    <contour>
      <point x="-11" y="685" type="line"/>
      <point x="-54" y="787"/>
      <point x="-94" y="875"/>
      <point x="-226" y="875" type="curve" smooth="yes"/>
      <point x="-277" y="875"/>
      <point x="-317" y="861"/>
      <point x="-359" y="836" type="curve"/>
      <point x="-400" y="912" type="line"/>
      <point x="-344" y="940"/>
      <point x="-289" y="955"/>
      <point x="-226" y="955" type="curve" smooth="yes"/>
      <point x="-61" y="955"/>
      <point x="31" y="859"/>
      <point x="83" y="685" type="curve"/>
    </contour>
  </outline>
</glyph>
<glyph name="uni0948" format="1">
  <advance width="0"/>
  <outline>
    <contour>
      <point x="-102" y="685" type="line"/>
      <point x="-153" y="732"/>
      <point x="-214" y="743"/>
      <point x="-283" y="743" type="curve" smooth="yes"/>
      <point x="-340" y="743"/>
      <point x="-389" y="726"/>
      <point x="-429" y="701" type="curve"/>
      <point x="-480" y="766" type="line"/>
      <point x="-432" y="795"/>
      <point x="-367" y="823"/>
      <point x="-283" y="823" type="curve" smooth="yes"/>
      <point x="-148" y="823"/>
      <point x="-73" y="774"/>
      <point x="-2" y="685" type="curve"/>
    </contour>
    <contour>
      <point x="-91" y="685" type="line"/>
      <point x="-134" y="787"/>
      <point x="-174" y="875"/>
      <point x="-306" y="875" type="curve" smooth="yes"/>
      <point x="-357" y="875"/>
      <point x="-397" y="861"/>
      <point x="-439" y="836" type="curve"/>
      <point x="-480" y="912" type="line"/>
      <point x="-424" y="940"/>
      <point x="-369" y="955"/>
      <point x="-306" y="955" type="curve" smooth="yes"/>
      <point x="-141" y="955"/>
      <point x="-49" y="859"/>
      <point x="3" y="685" type="curve"/>
    </contour>
  </outline>
</glyph>
<glyph name="uni0973" format="1">
  <advance width="796"/>
  <outline>
    <contour>
      <point x="278" y="364" type="curve"/>
      <point x="297" y="422" type="line"/>
      <point x="297" y="422"/>
      <point x="501" y="357"/>
      <point x="653" y="442" type="curve"/>
      <point x="694" y="365" type="line"/>
      <point x="512" y="266"/>
      <point x="278" y="363"/>
    </contour>
    <contour>
      <point x="236" y="409" type="line"/>
      <point x="327" y="428"/>
      <point x="380" y="445"/>
      <point x="380" y="519" type="curve" smooth="yes"/>
      <point x="380" y="562"/>
      <point x="348" y="603"/>
      <point x="293" y="603" type="curve" smooth="yes"/>
      <point x="245" y="603"/>
      <point x="207" y="579"/>
      <point x="198" y="533" type="curve"/>
      <point x="122" y="566" type="line"/>
      <point x="135" y="647"/>
      <point x="216" y="684"/>
      <point x="286" y="685" type="curve" smooth="yes"/>
      <point x="389" y="687"/>
      <point x="460" y="617"/>
      <point x="468" y="527" type="curve"/>
      <point x="468" y="409"/>
      <point x="385" y="349"/>
      <point x="272" y="348" type="curve"/>
    </contour>
    <contour>
      <point x="258" y="336" type="curve"/>
      <point x="236" y="409" type="line"/>
      <point x="390" y="409"/>
      <point x="503" y="313"/>
      <point x="503" y="209" type="curve"/>
      <point x="503" y="62"/>
      <point x="403" y="-6"/>
      <point x="267" y="-6" type="curve" smooth="yes"/>
      <point x="86" y="-6"/>
      <point x="14" y="133"/>
      <point x="-17" y="254" type="curve"/>
      <point x="64" y="290" type="line"/>
      <point x="92" y="171"/>
      <point x="152" y="76"/>
      <point x="275" y="76" type="curve" smooth="yes"/>
      <point x="360" y="76"/>
      <point x="412" y="130"/>
      <point x="412" y="205" type="curve"/>
      <point x="412" y="275"/>
      <point x="361" y="356"/>
    </contour>
    <contour>
      <point x="609" y="0" type="line"/>
      <point x="609" y="850" type="line"/>
      <point x="699" y="850" type="line"/>
      <point x="699" y="0" type="line"/>
    </contour>
    <contour>
      <point x="502" y="685" type="line"/>
      <point x="806" y="685" type="line"/>
      <point x="806" y="605" type="line"/>
      <point x="502" y="605" type="line"/>
    </contour>
  </outline>
</glyph>
